<mxfile host="app.diagrams.net" modified="2024-07-11T10:52:58.153Z" agent="Mozilla/5.0 (Windows NT 10.0; Win64; x64) AppleWebKit/537.36 (KHTML, like Gecko) Chrome/126.0.0.0 Safari/537.36" etag="OEysja9HPYUYWLotqvv5" version="24.6.4" type="github">
  <diagram id="C5RBs43oDa-KdzZeNtuy" name="Page-1">
    <mxGraphModel dx="1003" dy="815" grid="1" gridSize="10" guides="1" tooltips="1" connect="1" arrows="1" fold="1" page="1" pageScale="1" pageWidth="827" pageHeight="1169" math="0" shadow="0">
      <root>
        <mxCell id="WIyWlLk6GJQsqaUBKTNV-0" />
        <mxCell id="WIyWlLk6GJQsqaUBKTNV-1" parent="WIyWlLk6GJQsqaUBKTNV-0" />
        <mxCell id="Lsi0tqkH8bxgwTC8iu5v-4" value="SourceFactory" style="html=1;whiteSpace=wrap;" vertex="1" parent="WIyWlLk6GJQsqaUBKTNV-1">
          <mxGeometry x="470" y="400" width="110" height="50" as="geometry" />
        </mxCell>
        <mxCell id="Lsi0tqkH8bxgwTC8iu5v-5" value="ParticleMass" style="html=1;whiteSpace=wrap;" vertex="1" parent="WIyWlLk6GJQsqaUBKTNV-1">
          <mxGeometry x="290" y="190" width="110" height="50" as="geometry" />
        </mxCell>
        <mxCell id="Lsi0tqkH8bxgwTC8iu5v-6" value="MassMean" style="html=1;whiteSpace=wrap;" vertex="1" parent="WIyWlLk6GJQsqaUBKTNV-1">
          <mxGeometry x="290" y="260" width="110" height="50" as="geometry" />
        </mxCell>
        <mxCell id="Lsi0tqkH8bxgwTC8iu5v-7" value="EventSource" style="html=1;whiteSpace=wrap;" vertex="1" parent="WIyWlLk6GJQsqaUBKTNV-1">
          <mxGeometry x="610" y="400" width="110" height="50" as="geometry" />
        </mxCell>
        <mxCell id="Lsi0tqkH8bxgwTC8iu5v-8" value="EventSim" style="html=1;whiteSpace=wrap;" vertex="1" parent="WIyWlLk6GJQsqaUBKTNV-1">
          <mxGeometry x="610" y="320" width="110" height="50" as="geometry" />
        </mxCell>
        <mxCell id="Lsi0tqkH8bxgwTC8iu5v-9" value="EventReadFromFile" style="html=1;whiteSpace=wrap;" vertex="1" parent="WIyWlLk6GJQsqaUBKTNV-1">
          <mxGeometry x="610" y="250" width="110" height="50" as="geometry" />
        </mxCell>
        <mxCell id="Lsi0tqkH8bxgwTC8iu5v-10" value="EventDump" style="html=1;whiteSpace=wrap;" vertex="1" parent="WIyWlLk6GJQsqaUBKTNV-1">
          <mxGeometry x="610" y="170" width="110" height="50" as="geometry" />
        </mxCell>
        <mxCell id="Lsi0tqkH8bxgwTC8iu5v-11" value="Event" style="html=1;whiteSpace=wrap;" vertex="1" parent="WIyWlLk6GJQsqaUBKTNV-1">
          <mxGeometry x="610" y="100" width="110" height="50" as="geometry" />
        </mxCell>
        <mxCell id="Lsi0tqkH8bxgwTC8iu5v-12" value="AnalysisInfo" style="html=1;whiteSpace=wrap;" vertex="1" parent="WIyWlLk6GJQsqaUBKTNV-1">
          <mxGeometry x="80" y="270" width="110" height="50" as="geometry" />
        </mxCell>
        <mxCell id="Lsi0tqkH8bxgwTC8iu5v-13" value="AnalysisSteering" style="html=1;whiteSpace=wrap;" vertex="1" parent="WIyWlLk6GJQsqaUBKTNV-1">
          <mxGeometry x="80" y="190" width="110" height="50" as="geometry" />
        </mxCell>
        <mxCell id="Lsi0tqkH8bxgwTC8iu5v-14" value="AnalysisFactory" style="html=1;whiteSpace=wrap;" vertex="1" parent="WIyWlLk6GJQsqaUBKTNV-1">
          <mxGeometry x="80" y="120" width="110" height="50" as="geometry" />
        </mxCell>
      </root>
    </mxGraphModel>
  </diagram>
</mxfile>
